<?xml version="1.0" standalone="no"?>
<!DOCTYPE svg PUBLIC "-//W3C//DTD SVG 20010904//EN"
 "http://www.w3.org/TR/2001/REC-SVG-20010904/DTD/svg10.dtd">
<svg version="1.0" xmlns="http://www.w3.org/2000/svg"
 width="512.000000pt" height="512.000000pt" viewBox="0 0 512.000000 512.000000"
 preserveAspectRatio="xMidYMid meet">
<metadata>
Created by potrace 1.11, written by Peter Selinger 2001-2013
</metadata>
<g transform="translate(0.000000,512.000000) scale(0.100000,-0.100000)"
fill="#000000" stroke="none">
<path d="M145 5105 c-51 -18 -120 -91 -134 -141 -15 -54 -15 -4763 0 -4817 12
-43 68 -111 110 -133 24 -12 364 -14 2444 -14 1764 0 2422 3 2438 11 32 17 87
70 103 101 21 41 21 4845 0 4887 -22 42 -90 98 -133 110 -26 8 -768 11 -2413
11 -2022 -1 -2381 -3 -2415 -15z m4555 -2550 l0 -2135 -2135 0 -2135 0 0 2135
0 2135 2135 0 2135 0 0 -2135z"/>
<path d="M1375 4247 c-231 -77 -356 -312 -285 -538 37 -120 117 -211 236 -266
54 -26 69 -28 174 -28 110 0 119 2 181 32 127 63 217 185 242 326 30 176 -72
366 -241 449 -59 29 -76 33 -166 35 -64 2 -116 -2 -141 -10z"/>
<path d="M3503 4246 c-197 -64 -329 -276 -296 -473 25 -141 115 -263 242 -326
62 -30 71 -32 181 -32 105 0 120 2 174 28 119 55 199 146 236 266 65 207 -34
425 -236 518 -50 23 -75 28 -159 30 -65 2 -115 -2 -142 -11z"/>
<path d="M1375 2967 c-231 -77 -356 -312 -285 -538 37 -120 117 -211 236 -266
54 -26 69 -28 174 -28 110 0 119 2 181 32 127 63 217 185 242 326 30 176 -72
366 -241 449 -59 29 -76 33 -166 35 -64 2 -116 -2 -141 -10z"/>
<path d="M3503 2966 c-197 -64 -329 -276 -296 -473 25 -141 115 -263 242 -326
62 -30 71 -32 181 -32 105 0 120 2 174 28 119 55 199 146 236 266 65 207 -34
425 -236 518 -50 23 -75 28 -159 30 -65 2 -115 -2 -142 -11z"/>
<path d="M1375 1687 c-231 -77 -356 -312 -285 -538 37 -120 117 -211 236 -266
54 -26 69 -28 174 -28 110 0 119 2 181 32 127 63 217 185 242 326 30 176 -72
366 -241 449 -59 29 -76 33 -166 35 -64 2 -116 -2 -141 -10z"/>
<path d="M3503 1686 c-197 -64 -329 -276 -296 -473 25 -141 115 -263 242 -326
62 -30 71 -32 181 -32 105 0 120 2 174 28 119 55 199 146 236 266 65 207 -34
425 -236 518 -50 23 -75 28 -159 30 -65 2 -115 -2 -142 -11z"/>
</g>
</svg>
